<?xml version="1.0" standalone="no"?>
<svg xmlns:xlink="http://www.w3.org/1999/xlink" id="wave" style="transform:rotate(180deg); transition: 0.3s" viewBox="0 0 1440 490" version="1.1" xmlns="http://www.w3.org/2000/svg"><defs><linearGradient id="sw-gradient-0" x1="0" x2="0" y1="1" y2="0"><stop stop-color="rgba(51, 187, 197, 1)" offset="0%"/><stop stop-color="rgba(139, 232, 229, 1)" offset="100%"/></linearGradient></defs><path style="transform:translate(0, 0px); opacity:1" fill="url(#sw-gradient-0)" d="M0,49L120,40.8C240,33,480,16,720,24.5C960,33,1200,65,1440,130.7C1680,196,1920,294,2160,294C2400,294,2640,196,2880,171.5C3120,147,3360,196,3600,196C3840,196,4080,147,4320,122.5C4560,98,4800,98,5040,98C5280,98,5520,98,5760,89.8C6000,82,6240,65,6480,57.2C6720,49,6960,49,7200,114.3C7440,180,7680,310,7920,343C8160,376,8400,310,8640,294C8880,278,9120,310,9360,277.7C9600,245,9840,147,10080,163.3C10320,180,10560,310,10800,343C11040,376,11280,310,11520,253.2C11760,196,12000,147,12240,106.2C12480,65,12720,33,12960,32.7C13200,33,13440,65,13680,122.5C13920,180,14160,261,14400,294C14640,327,14880,310,15120,310.3C15360,310,15600,327,15840,343C16080,359,16320,376,16560,326.7C16800,278,17040,163,17160,106.2L17280,49L17280,490L17160,490C17040,490,16800,490,16560,490C16320,490,16080,490,15840,490C15600,490,15360,490,15120,490C14880,490,14640,490,14400,490C14160,490,13920,490,13680,490C13440,490,13200,490,12960,490C12720,490,12480,490,12240,490C12000,490,11760,490,11520,490C11280,490,11040,490,10800,490C10560,490,10320,490,10080,490C9840,490,9600,490,9360,490C9120,490,8880,490,8640,490C8400,490,8160,490,7920,490C7680,490,7440,490,7200,490C6960,490,6720,490,6480,490C6240,490,6000,490,5760,490C5520,490,5280,490,5040,490C4800,490,4560,490,4320,490C4080,490,3840,490,3600,490C3360,490,3120,490,2880,490C2640,490,2400,490,2160,490C1920,490,1680,490,1440,490C1200,490,960,490,720,490C480,490,240,490,120,490L0,490Z"/><defs><linearGradient id="sw-gradient-1" x1="0" x2="0" y1="1" y2="0"><stop stop-color="rgba(151, 254, 237, 1)" offset="0%"/><stop stop-color="rgba(145, 200, 228, 1)" offset="100%"/></linearGradient></defs><path style="transform:translate(0, 50px); opacity:0.9" fill="url(#sw-gradient-1)" d="M0,196L120,236.8C240,278,480,359,720,334.8C960,310,1200,180,1440,147C1680,114,1920,180,2160,196C2400,212,2640,180,2880,163.3C3120,147,3360,147,3600,147C3840,147,4080,147,4320,187.8C4560,229,4800,310,5040,351.2C5280,392,5520,392,5760,359.3C6000,327,6240,261,6480,196C6720,131,6960,65,7200,106.2C7440,147,7680,294,7920,294C8160,294,8400,147,8640,138.8C8880,131,9120,261,9360,310.3C9600,359,9840,327,10080,334.8C10320,343,10560,392,10800,392C11040,392,11280,343,11520,310.3C11760,278,12000,261,12240,245C12480,229,12720,212,12960,187.8C13200,163,13440,131,13680,147C13920,163,14160,229,14400,285.8C14640,343,14880,392,15120,375.7C15360,359,15600,278,15840,212.3C16080,147,16320,98,16560,138.8C16800,180,17040,310,17160,375.7L17280,441L17280,490L17160,490C17040,490,16800,490,16560,490C16320,490,16080,490,15840,490C15600,490,15360,490,15120,490C14880,490,14640,490,14400,490C14160,490,13920,490,13680,490C13440,490,13200,490,12960,490C12720,490,12480,490,12240,490C12000,490,11760,490,11520,490C11280,490,11040,490,10800,490C10560,490,10320,490,10080,490C9840,490,9600,490,9360,490C9120,490,8880,490,8640,490C8400,490,8160,490,7920,490C7680,490,7440,490,7200,490C6960,490,6720,490,6480,490C6240,490,6000,490,5760,490C5520,490,5280,490,5040,490C4800,490,4560,490,4320,490C4080,490,3840,490,3600,490C3360,490,3120,490,2880,490C2640,490,2400,490,2160,490C1920,490,1680,490,1440,490C1200,490,960,490,720,490C480,490,240,490,120,490L0,490Z"/><defs><linearGradient id="sw-gradient-2" x1="0" x2="0" y1="1" y2="0"><stop stop-color="rgba(139, 232, 229, 1)" offset="0%"/><stop stop-color="rgba(139, 232, 229, 1)" offset="100%"/></linearGradient></defs><path style="transform:translate(0, 100px); opacity:0.8" fill="url(#sw-gradient-2)" d="M0,0L120,16.3C240,33,480,65,720,98C960,131,1200,163,1440,155.2C1680,147,1920,98,2160,73.5C2400,49,2640,49,2880,89.8C3120,131,3360,212,3600,212.3C3840,212,4080,131,4320,155.2C4560,180,4800,310,5040,310.3C5280,310,5520,180,5760,179.7C6000,180,6240,310,6480,326.7C6720,343,6960,245,7200,196C7440,147,7680,147,7920,122.5C8160,98,8400,49,8640,57.2C8880,65,9120,131,9360,171.5C9600,212,9840,229,10080,269.5C10320,310,10560,376,10800,343C11040,310,11280,180,11520,163.3C11760,147,12000,245,12240,277.7C12480,310,12720,278,12960,269.5C13200,261,13440,278,13680,294C13920,310,14160,327,14400,318.5C14640,310,14880,278,15120,253.2C15360,229,15600,212,15840,179.7C16080,147,16320,98,16560,98C16800,98,17040,147,17160,171.5L17280,196L17280,490L17160,490C17040,490,16800,490,16560,490C16320,490,16080,490,15840,490C15600,490,15360,490,15120,490C14880,490,14640,490,14400,490C14160,490,13920,490,13680,490C13440,490,13200,490,12960,490C12720,490,12480,490,12240,490C12000,490,11760,490,11520,490C11280,490,11040,490,10800,490C10560,490,10320,490,10080,490C9840,490,9600,490,9360,490C9120,490,8880,490,8640,490C8400,490,8160,490,7920,490C7680,490,7440,490,7200,490C6960,490,6720,490,6480,490C6240,490,6000,490,5760,490C5520,490,5280,490,5040,490C4800,490,4560,490,4320,490C4080,490,3840,490,3600,490C3360,490,3120,490,2880,490C2640,490,2400,490,2160,490C1920,490,1680,490,1440,490C1200,490,960,490,720,490C480,490,240,490,120,490L0,490Z"/></svg>